<svg width="100" height="24" viewBox="0 0 100 24" fill="none" xmlns="http://www.w3.org/2000/svg">
<g clip-path="url(#clip0_160_73)">
<path d="M19 9L20.25 6.25L23 5L20.25 3.75L19 1L17.75 3.75L15 5L17.75 6.25L19 9Z" fill="black"/>
<path d="M19 15L17.75 17.75L15 19L17.75 20.25L19 23L20.25 20.25L23 19L20.25 17.75L19 15Z" fill="black"/>
<path d="M11.5 9.5L9 4L6.5 9.5L1 12L6.5 14.5L9 20L11.5 14.5L17 12L11.5 9.5ZM9.99 12.99L9 15.17L8.01 12.99L5.83 12L8.01 11.01L9 8.83L9.99 11.01L12.17 12L9.99 12.99Z" fill="black"/>
</g>
<path d="M33.48 19.5V5.32H36.24V12.06L42.2 5.3H45.24L39.8 11.6L45.58 19.5H42.46L38.04 13.38L36.24 15.26V19.5H33.48ZM45.8008 16.4C45.8008 15.72 45.9874 15.1267 46.3608 14.62C46.7474 14.1 47.2808 13.7 47.9608 13.42C48.6408 13.14 49.4208 13 50.3008 13C50.7408 13 51.1874 13.0333 51.6408 13.1C52.0941 13.1667 52.4874 13.2733 52.8208 13.42V12.86C52.8208 12.1933 52.6208 11.68 52.2208 11.32C51.8341 10.96 51.2541 10.78 50.4808 10.78C49.9074 10.78 49.3608 10.88 48.8408 11.08C48.3208 11.28 47.7741 11.5733 47.2008 11.96L46.3408 10.2C47.0341 9.74667 47.7408 9.40667 48.4608 9.18C49.1941 8.95333 49.9608 8.84 50.7608 8.84C52.2541 8.84 53.4141 9.21333 54.2408 9.96C55.0808 10.7067 55.5008 11.7733 55.5008 13.16V16.5C55.5008 16.78 55.5474 16.98 55.6408 17.1C55.7474 17.22 55.9141 17.2933 56.1408 17.32V19.5C55.9008 19.54 55.6808 19.5733 55.4808 19.6C55.2941 19.6267 55.1341 19.64 55.0008 19.64C54.4674 19.64 54.0608 19.52 53.7808 19.28C53.5141 19.04 53.3474 18.7467 53.2808 18.4L53.2208 17.86C52.7674 18.4467 52.2008 18.9 51.5208 19.22C50.8408 19.54 50.1474 19.7 49.4408 19.7C48.7474 19.7 48.1208 19.56 47.5608 19.28C47.0141 18.9867 46.5808 18.5933 46.2608 18.1C45.9541 17.5933 45.8008 17.0267 45.8008 16.4ZM52.3208 16.94C52.4674 16.78 52.5874 16.62 52.6808 16.46C52.7741 16.3 52.8208 16.1533 52.8208 16.02V14.96C52.5008 14.8267 52.1541 14.7267 51.7808 14.66C51.4074 14.58 51.0541 14.54 50.7208 14.54C50.0274 14.54 49.4541 14.6933 49.0008 15C48.5608 15.2933 48.3408 15.6867 48.3408 16.18C48.3408 16.4467 48.4141 16.7 48.5608 16.94C48.7074 17.18 48.9208 17.3733 49.2008 17.52C49.4808 17.6667 49.8141 17.74 50.2008 17.74C50.6008 17.74 50.9941 17.6667 51.3808 17.52C51.7674 17.36 52.0808 17.1667 52.3208 16.94ZM57.9852 4.9H60.6652V16.14C60.6652 16.62 60.7452 16.9467 60.9052 17.12C61.0652 17.28 61.2852 17.36 61.5652 17.36C61.7785 17.36 61.9985 17.3333 62.2252 17.28C62.4518 17.2267 62.6518 17.16 62.8252 17.08L63.1852 19.12C62.8252 19.2933 62.4052 19.4267 61.9252 19.52C61.4452 19.6133 61.0118 19.66 60.6252 19.66C59.7852 19.66 59.1318 19.44 58.6652 19C58.2118 18.5467 57.9852 17.9067 57.9852 17.08V4.9ZM69.2128 19.7C68.3728 19.7 67.6128 19.56 66.9328 19.28C66.2528 18.9867 65.6728 18.5933 65.1928 18.1C64.7128 17.5933 64.3395 17.02 64.0728 16.38C63.8195 15.7267 63.6928 15.04 63.6928 14.32C63.6928 13.32 63.9128 12.4067 64.3528 11.58C64.8061 10.7533 65.4461 10.0933 66.2728 9.6C67.1128 9.09333 68.0995 8.84 69.2328 8.84C70.3795 8.84 71.3595 9.09333 72.1728 9.6C72.9861 10.0933 73.6061 10.7533 74.0328 11.58C74.4728 12.3933 74.6928 13.2733 74.6928 14.22C74.6928 14.38 74.6861 14.5467 74.6728 14.72C74.6595 14.88 74.6461 15.0133 74.6328 15.12H66.5328C66.5861 15.6533 66.7395 16.12 66.9928 16.52C67.2595 16.92 67.5928 17.2267 67.9928 17.44C68.4061 17.64 68.8461 17.74 69.3128 17.74C69.8461 17.74 70.3461 17.6133 70.8128 17.36C71.2928 17.0933 71.6195 16.7467 71.7928 16.32L74.0928 16.96C73.8395 17.4933 73.4728 17.9667 72.9928 18.38C72.5261 18.7933 71.9728 19.12 71.3328 19.36C70.6928 19.5867 69.9861 19.7 69.2128 19.7ZM66.4728 13.42H71.9528C71.8995 12.8867 71.7461 12.4267 71.4928 12.04C71.2528 11.64 70.9328 11.3333 70.5328 11.12C70.1328 10.8933 69.6861 10.78 69.1928 10.78C68.7128 10.78 68.2728 10.8933 67.8728 11.12C67.4861 11.3333 67.1661 11.64 66.9128 12.04C66.6728 12.4267 66.5261 12.8867 66.4728 13.42ZM82.2855 19.7C81.4855 19.7 80.7721 19.52 80.1455 19.16C79.5188 18.8 79.0255 18.3067 78.6655 17.68V19.5H76.3255V4.9H79.0055V10.86C79.3788 10.2333 79.8655 9.74 80.4655 9.38C81.0788 9.02 81.7921 8.84 82.6055 8.84C83.2855 8.84 83.9055 8.98667 84.4655 9.28C85.0255 9.56 85.5055 9.95333 85.9055 10.46C86.3188 10.9667 86.6321 11.5467 86.8455 12.2C87.0721 12.8533 87.1855 13.5533 87.1855 14.3C87.1855 15.0467 87.0588 15.7467 86.8055 16.4C86.5655 17.0533 86.2255 17.6333 85.7855 18.14C85.3455 18.6333 84.8255 19.02 84.2255 19.3C83.6388 19.5667 82.9921 19.7 82.2855 19.7ZM81.5455 17.42C81.9721 17.42 82.3588 17.34 82.7055 17.18C83.0655 17.0067 83.3721 16.78 83.6255 16.5C83.8921 16.22 84.0921 15.8933 84.2255 15.52C84.3721 15.1333 84.4455 14.7333 84.4455 14.32C84.4455 13.7467 84.3255 13.22 84.0855 12.74C83.8588 12.2467 83.5388 11.8533 83.1255 11.56C82.7255 11.2667 82.2521 11.12 81.7055 11.12C81.3188 11.12 80.9455 11.2133 80.5855 11.4C80.2388 11.5733 79.9255 11.8133 79.6455 12.12C79.3788 12.4267 79.1655 12.7733 79.0055 13.16V15.66C79.0855 15.9267 79.2121 16.1667 79.3855 16.38C79.5721 16.5933 79.7855 16.78 80.0255 16.94C80.2655 17.0867 80.5121 17.2067 80.7655 17.3C81.0321 17.38 81.2921 17.42 81.5455 17.42ZM93.8613 19.7C93.0213 19.7 92.2613 19.56 91.5813 19.28C90.9013 18.9867 90.3213 18.5933 89.8413 18.1C89.3613 17.5933 88.9879 17.02 88.7213 16.38C88.4679 15.7267 88.3413 15.04 88.3413 14.32C88.3413 13.32 88.5613 12.4067 89.0013 11.58C89.4546 10.7533 90.0946 10.0933 90.9213 9.6C91.7613 9.09333 92.7479 8.84 93.8813 8.84C95.0279 8.84 96.0079 9.09333 96.8213 9.6C97.6346 10.0933 98.2546 10.7533 98.6813 11.58C99.1213 12.3933 99.3413 13.2733 99.3413 14.22C99.3413 14.38 99.3346 14.5467 99.3213 14.72C99.3079 14.88 99.2946 15.0133 99.2813 15.12H91.1813C91.2346 15.6533 91.3879 16.12 91.6413 16.52C91.9079 16.92 92.2413 17.2267 92.6413 17.44C93.0546 17.64 93.4946 17.74 93.9613 17.74C94.4946 17.74 94.9946 17.6133 95.4613 17.36C95.9413 17.0933 96.2679 16.7467 96.4413 16.32L98.7413 16.96C98.4879 17.4933 98.1213 17.9667 97.6413 18.38C97.1746 18.7933 96.6213 19.12 95.9813 19.36C95.3413 19.5867 94.6346 19.7 93.8613 19.7ZM91.1213 13.42H96.6013C96.5479 12.8867 96.3946 12.4267 96.1413 12.04C95.9013 11.64 95.5813 11.3333 95.1813 11.12C94.7813 10.8933 94.3346 10.78 93.8413 10.78C93.3613 10.78 92.9213 10.8933 92.5213 11.12C92.1346 11.3333 91.8146 11.64 91.5613 12.04C91.3213 12.4267 91.1746 12.8867 91.1213 13.42Z" fill="black"/>
<defs>
<clipPath id="clip0_160_73">
<rect width="24" height="24" fill="white"/>
</clipPath>
</defs>
</svg>
