<svg width="87" height="24" viewBox="0 0 87 24" fill="none" xmlns="http://www.w3.org/2000/svg">
<g clip-path="url(#clip0_160_73)">
<path d="M19 9L20.25 6.25L23 5L20.25 3.75L19 1L17.75 3.75L15 5L17.75 6.25L19 9Z" fill="#464646"/>
<path d="M19 15L17.75 17.75L15 19L17.75 20.25L19 23L20.25 20.25L23 19L20.25 17.75L19 15Z" fill="#464646"/>
<path d="M11.5 9.5L9 4L6.5 9.5L1 12L6.5 14.5L9 20L11.5 14.5L17 12L11.5 9.5ZM9.99 12.99L9 15.17L8.01 12.99L5.83 12L8.01 11.01L9 8.83L9.99 11.01L12.17 12L9.99 12.99Z" fill="#464646"/>
</g>
<path d="M33.184 17.5V6.156H35.392V11.548L40.16 6.14H42.592L38.24 11.18L42.864 17.5H40.368L36.832 12.604L35.392 14.108V17.5H33.184ZM43.0406 15.02C43.0406 14.476 43.19 14.0013 43.4886 13.596C43.798 13.18 44.2246 12.86 44.7686 12.636C45.3126 12.412 45.9366 12.3 46.6406 12.3C46.9926 12.3 47.35 12.3267 47.7126 12.38C48.0753 12.4333 48.39 12.5187 48.6566 12.636V12.188C48.6566 11.6547 48.4966 11.244 48.1766 10.956C47.8673 10.668 47.4033 10.524 46.7846 10.524C46.326 10.524 45.8886 10.604 45.4726 10.764C45.0566 10.924 44.6193 11.1587 44.1606 11.468L43.4726 10.06C44.0273 9.69733 44.5926 9.42533 45.1686 9.244C45.7553 9.06267 46.3686 8.972 47.0086 8.972C48.2033 8.972 49.1313 9.27067 49.7926 9.868C50.4646 10.4653 50.8006 11.3187 50.8006 12.428V15.1C50.8006 15.324 50.838 15.484 50.9126 15.58C50.998 15.676 51.1313 15.7347 51.3126 15.756V17.5C51.1206 17.532 50.9446 17.5587 50.7846 17.58C50.6353 17.6013 50.5073 17.612 50.4006 17.612C49.974 17.612 49.6486 17.516 49.4246 17.324C49.2113 17.132 49.078 16.8973 49.0246 16.62L48.9766 16.188C48.614 16.6573 48.1606 17.02 47.6166 17.276C47.0726 17.532 46.518 17.66 45.9526 17.66C45.398 17.66 44.8966 17.548 44.4486 17.324C44.0113 17.0893 43.6646 16.7747 43.4086 16.38C43.1633 15.9747 43.0406 15.5213 43.0406 15.02ZM48.2566 15.452C48.374 15.324 48.47 15.196 48.5446 15.068C48.6193 14.94 48.6566 14.8227 48.6566 14.716V13.868C48.4006 13.7613 48.1233 13.6813 47.8246 13.628C47.526 13.564 47.2433 13.532 46.9766 13.532C46.422 13.532 45.9633 13.6547 45.6006 13.9C45.2486 14.1347 45.0726 14.4493 45.0726 14.844C45.0726 15.0573 45.1313 15.26 45.2486 15.452C45.366 15.644 45.5366 15.7987 45.7606 15.916C45.9846 16.0333 46.2513 16.092 46.5606 16.092C46.8806 16.092 47.1953 16.0333 47.5046 15.916C47.814 15.788 48.0646 15.6333 48.2566 15.452ZM52.7881 5.82H54.9321V14.812C54.9321 15.196 54.9961 15.4573 55.1241 15.596C55.2521 15.724 55.4281 15.788 55.6521 15.788C55.8228 15.788 55.9988 15.7667 56.1801 15.724C56.3615 15.6813 56.5215 15.628 56.6601 15.564L56.9481 17.196C56.6601 17.3347 56.3241 17.4413 55.9401 17.516C55.5561 17.5907 55.2095 17.628 54.9001 17.628C54.2281 17.628 53.7055 17.452 53.3321 17.1C52.9695 16.7373 52.7881 16.2253 52.7881 15.564V5.82ZM61.7703 17.66C61.0983 17.66 60.4903 17.548 59.9463 17.324C59.4023 17.0893 58.9383 16.7747 58.5543 16.38C58.1703 15.9747 57.8716 15.516 57.6583 15.004C57.4556 14.4813 57.3543 13.932 57.3543 13.356C57.3543 12.556 57.5303 11.8253 57.8823 11.164C58.2449 10.5027 58.7569 9.97467 59.4183 9.58C60.0903 9.17467 60.8796 8.972 61.7863 8.972C62.7036 8.972 63.4876 9.17467 64.1383 9.58C64.7889 9.97467 65.2849 10.5027 65.6263 11.164C65.9783 11.8147 66.1543 12.5187 66.1543 13.276C66.1543 13.404 66.1489 13.5373 66.1383 13.676C66.1276 13.804 66.1169 13.9107 66.1063 13.996H59.6263C59.6689 14.4227 59.7916 14.796 59.9943 15.116C60.2076 15.436 60.4743 15.6813 60.7943 15.852C61.1249 16.012 61.4769 16.092 61.8503 16.092C62.2769 16.092 62.6769 15.9907 63.0503 15.788C63.4343 15.5747 63.6956 15.2973 63.8343 14.956L65.6743 15.468C65.4716 15.8947 65.1783 16.2733 64.7943 16.604C64.4209 16.9347 63.9783 17.196 63.4663 17.388C62.9543 17.5693 62.3889 17.66 61.7703 17.66ZM59.5783 12.636H63.9623C63.9196 12.2093 63.7969 11.8413 63.5943 11.532C63.4023 11.212 63.1463 10.9667 62.8263 10.796C62.5063 10.6147 62.1489 10.524 61.7543 10.524C61.3703 10.524 61.0183 10.6147 60.6983 10.796C60.3889 10.9667 60.1329 11.212 59.9303 11.532C59.7383 11.8413 59.6209 12.2093 59.5783 12.636ZM72.2284 17.66C71.5884 17.66 71.0177 17.516 70.5164 17.228C70.015 16.94 69.6204 16.5453 69.3324 16.044V17.5H67.4604V5.82H69.6044V10.588C69.903 10.0867 70.2924 9.692 70.7724 9.404C71.263 9.116 71.8337 8.972 72.4844 8.972C73.0284 8.972 73.5244 9.08933 73.9724 9.324C74.4204 9.548 74.8044 9.86267 75.1244 10.268C75.455 10.6733 75.7057 11.1373 75.8764 11.66C76.0577 12.1827 76.1484 12.7427 76.1484 13.34C76.1484 13.9373 76.047 14.4973 75.8444 15.02C75.6524 15.5427 75.3804 16.0067 75.0284 16.412C74.6764 16.8067 74.2604 17.116 73.7804 17.34C73.311 17.5533 72.7937 17.66 72.2284 17.66ZM71.6364 15.836C71.9777 15.836 72.287 15.772 72.5644 15.644C72.8524 15.5053 73.0977 15.324 73.3004 15.1C73.5137 14.876 73.6737 14.6147 73.7804 14.316C73.8977 14.0067 73.9564 13.6867 73.9564 13.356C73.9564 12.8973 73.8604 12.476 73.6684 12.092C73.487 11.6973 73.231 11.3827 72.9004 11.148C72.5804 10.9133 72.2017 10.796 71.7644 10.796C71.455 10.796 71.1564 10.8707 70.8684 11.02C70.591 11.1587 70.3404 11.3507 70.1164 11.596C69.903 11.8413 69.7324 12.1187 69.6044 12.428V14.428C69.6684 14.6413 69.7697 14.8333 69.9084 15.004C70.0577 15.1747 70.2284 15.324 70.4204 15.452C70.6124 15.5693 70.8097 15.6653 71.0124 15.74C71.2257 15.804 71.4337 15.836 71.6364 15.836ZM81.489 17.66C80.817 17.66 80.209 17.548 79.665 17.324C79.121 17.0893 78.657 16.7747 78.273 16.38C77.889 15.9747 77.5903 15.516 77.377 15.004C77.1743 14.4813 77.073 13.932 77.073 13.356C77.073 12.556 77.249 11.8253 77.601 11.164C77.9637 10.5027 78.4757 9.97467 79.137 9.58C79.809 9.17467 80.5983 8.972 81.505 8.972C82.4223 8.972 83.2063 9.17467 83.857 9.58C84.5077 9.97467 85.0037 10.5027 85.345 11.164C85.697 11.8147 85.873 12.5187 85.873 13.276C85.873 13.404 85.8677 13.5373 85.857 13.676C85.8463 13.804 85.8357 13.9107 85.825 13.996H79.345C79.3877 14.4227 79.5103 14.796 79.713 15.116C79.9263 15.436 80.193 15.6813 80.513 15.852C80.8437 16.012 81.1957 16.092 81.569 16.092C81.9957 16.092 82.3957 15.9907 82.769 15.788C83.153 15.5747 83.4143 15.2973 83.553 14.956L85.393 15.468C85.1903 15.8947 84.897 16.2733 84.513 16.604C84.1397 16.9347 83.697 17.196 83.185 17.388C82.673 17.5693 82.1077 17.66 81.489 17.66ZM79.297 12.636H83.681C83.6383 12.2093 83.5157 11.8413 83.313 11.532C83.121 11.212 82.865 10.9667 82.545 10.796C82.225 10.6147 81.8677 10.524 81.473 10.524C81.089 10.524 80.737 10.6147 80.417 10.796C80.1077 10.9667 79.8517 11.212 79.649 11.532C79.457 11.8413 79.3397 12.2093 79.297 12.636Z" fill="#464646"/>
<defs>
<clipPath id="clip0_160_73">
<rect width="24" height="24" fill="white"/>
</clipPath>
</defs>
</svg>
